# xmcd CD database file
#
# Track frame offsets:
#	150
#	19298
#	43290
#	66103
#	88943
#	109438
#	128690
#	151535
#	175588
#	200020
#	219350
#	234438
#	256293
#	277090
#	297425
#
# Disc length: 4261 seconds
#
# Revision: 0
# Processed by: cddbd v1.4PL0 Copyright (c) Steve Scherf et al.
# Submitted via: CDex 1.50
#
DISCID=de10a30f
DTITLE=Salserin - Entre Tu Y Yo
DYEAR=1997
DGENRE=Salsa
TTITLE0=Entre Tu Y Yo
TTITLE1=Amor A Primera Vista
TTITLE2=Tu Mama Y Tu Corazon
TTITLE3=Se Minimizo Este Amor
TTITLE4=Un Beso No Es Pecado
TTITLE5=El Mini Sonero
TTITLE6=Blanco Y Negro
TTITLE7=Quiro Vivir Y Sonar
TTITLE8=Un Pezado de mi Vida
TTITLE9=Rosa En La Playa
TTITLE10=Mirare para Arriba
TTITLE11=Mi Bicicleta
TTITLE12=Tu Eres La Que Amo
TTITLE13=Entre Tu Y Yo (Version Balada)
TTITLE14=De Sol A Sol
EXTD=YEAR: 1997
EXTT0=
EXTT1=
EXTT2=
EXTT3=
EXTT4=
EXTT5=
EXTT6=
EXTT7=
EXTT8=
EXTT9=
EXTT10=
EXTT11=
EXTT12=
EXTT13=
EXTT14=
PLAYORDER=
